<?xml version="1.0" encoding="us-ascii" standalone="no"?><svg xmlns="http://www.w3.org/2000/svg" xmlns:xlink="http://www.w3.org/1999/xlink" contentStyleType="text/css" height="977px" preserveAspectRatio="none" style="width:1132px;height:977px;background:#FFFFFF;" version="1.1" viewBox="0 0 1132 977" width="1132px" zoomAndPan="magnify"><defs/><g><text fill="#000000" font-family="Helvetica" font-size="14" font-weight="bold" lengthAdjust="spacing" textLength="339" x="389.5" y="20.7803">Crypto subsystem - structural vs logical coupling</text><!--entity aes--><g id="elem_aes"><rect fill="#E8F0FE" height="31" rx="5" ry="5" style="stroke:#181818;stroke-width:0.5;" width="38" x="373" y="42"/><text fill="#000000" font-family="Helvetica" font-size="11" lengthAdjust="spacing" textLength="18" x="383" y="60.4702">aes</text></g><!--entity cfrg--><g id="elem_cfrg"><rect fill="#E8F0FE" height="31" rx="5" ry="5" style="stroke:#181818;stroke-width:0.5;" width="39" x="638.5" y="208"/><text fill="#000000" font-family="Helvetica" font-size="11" lengthAdjust="spacing" textLength="19" x="648.5" y="226.4702">cfrg</text></g><!--entity ec--><g id="elem_ec"><rect fill="#E8F0FE" height="31" rx="5" ry="5" style="stroke:#181818;stroke-width:0.5;" width="32" x="566" y="415"/><text fill="#000000" font-family="Helvetica" font-size="11" lengthAdjust="spacing" textLength="12" x="576" y="433.4702">ec</text></g><!--entity rsa--><g id="elem_rsa"><rect fill="#E8F0FE" height="31" rx="5" ry="5" style="stroke:#181818;stroke-width:0.5;" width="36" x="734" y="747"/><text fill="#000000" font-family="Helvetica" font-size="11" lengthAdjust="spacing" textLength="16" x="744" y="765.4702">rsa</text></g><!--entity mac--><g id="elem_mac"><rect fill="#E8F0FE" height="31" rx="5" ry="5" style="stroke:#181818;stroke-width:0.5;" width="41" x="563.5" y="581"/><text fill="#000000" font-family="Helvetica" font-size="11" lengthAdjust="spacing" textLength="21" x="573.5" y="599.4702">mac</text></g><!--entity ml_dsa--><g id="elem_ml_dsa"><rect fill="#E8F0FE" height="31" rx="5" ry="5" style="stroke:#181818;stroke-width:0.5;" width="55" x="399.5" y="581"/><text fill="#000000" font-family="Helvetica" font-size="11" lengthAdjust="spacing" textLength="35" x="409.5" y="599.4702">ml_dsa</text></g><!--entity ml_kem--><g id="elem_ml_kem"><rect fill="#E8F0FE" height="31" rx="5" ry="5" style="stroke:#181818;stroke-width:0.5;" width="58" x="463" y="747"/><text fill="#000000" font-family="Helvetica" font-size="11" lengthAdjust="spacing" textLength="38" x="473" y="765.4702">ml_kem</text></g><!--entity cc--><g id="elem_cc"><rect fill="#E8F0FE" height="42" rx="5" ry="5" style="stroke:#181818;stroke-width:0.5;" width="74" x="7" y="269"/><text fill="#000000" font-family="Helvetica" font-size="11" lengthAdjust="spacing" textLength="54" x="17" y="287.4702">chacha20_</text><text fill="#000000" font-family="Helvetica" font-size="11" lengthAdjust="spacing" textLength="44" x="17" y="298.4702">poly1305</text></g><!--entity util--><g id="elem_util"><rect fill="#FFE8D6" height="31" rx="5" ry="5" style="stroke:#181818;stroke-width:0.5;" width="33" x="287.5" y="839"/><text fill="#000000" font-family="Helvetica" font-size="11" lengthAdjust="spacing" textLength="13" x="297.5" y="857.4702">util</text></g><!--entity webidl--><g id="elem_webidl"><rect fill="#FFE8D6" height="31" rx="5" ry="5" style="stroke:#181818;stroke-width:0.5;" width="50" x="770" y="839"/><text fill="#000000" font-family="Helvetica" font-size="11" lengthAdjust="spacing" textLength="30" x="780" y="857.4702">webidl</text></g><!--link aes to util--><g id="link_aes_util"><path d="M372.87,60.15 C311.88,65.95 126,87.85 126,139.5 C126,139.5 126,139.5 126,763.5 C126,835.35 236.953,849.4555 281.263,852.3755 " fill="none" id="aes-to-util" style="stroke:#181818;stroke-width:1.0;"/><polygon fill="#181818" points="287.25,852.77,278.5325,848.1868,282.2608,852.4412,278.0065,856.1695,287.25,852.77" style="stroke:#181818;stroke-width:1.0;"/></g><!--link cfrg to util--><g id="link_cfrg_util"><path d="M638.19,231.1 C549.95,261.88 197,400.13 197,642 C197,642 197,642 197,763.5 C197,810.11 251.5398,835.4114 281.6298,846.1614 " fill="none" id="cfrg-to-util" style="stroke:#181818;stroke-width:1.0;"/><polygon fill="#181818" points="287.28,848.18,280.1504,841.3853,282.5715,846.4978,277.4589,848.9189,287.28,848.18" style="stroke:#181818;stroke-width:1.0;"/></g><!--link ec to util--><g id="link_ec_util"><path d="M565.56,432.26 C500.95,436.22 268,459.89 268,595.5 C268,595.5 268,595.5 268,763.5 C268,791.6 280.172,816.2322 290.822,833.5122 " fill="none" id="ec-to-util" style="stroke:#181818;stroke-width:1.0;"/><polygon fill="#181818" points="293.97,838.62,292.6531,828.8596,291.3466,834.3635,285.8427,833.057,293.97,838.62" style="stroke:#181818;stroke-width:1.0;"/></g><!--link rsa to util--><g id="link_rsa_util"><path d="M733.6,767.2 C660.5,781.88 397.0026,834.8188 326.7326,848.9288 " fill="none" id="rsa-to-util" style="stroke:#181818;stroke-width:1.0;"/><polygon fill="#181818" points="320.85,850.11,330.4613,852.2599,325.7522,849.1257,328.8864,844.4165,320.85,850.11" style="stroke:#181818;stroke-width:1.0;"/></g><!--link mac to util--><g id="link_mac_util"><path d="M569.78,612.19 C552.44,629.99 522.07,660.72 495,686 C432.31,744.55 359.204,806.9487 325.504,835.4087 " fill="none" id="mac-to-util" style="stroke:#181818;stroke-width:1.0;"/><polygon fill="#181818" points="320.92,839.28,330.3769,836.5291,324.74,836.0539,325.2152,830.4171,320.92,839.28" style="stroke:#181818;stroke-width:1.0;"/></g><!--link ml_dsa to util--><g id="link_ml_dsa_util"><path d="M419.86,612.37 C398.12,657.62 335.5289,787.8821 313.7589,833.1821 " fill="none" id="ml_dsa-to-util" style="stroke:#181818;stroke-width:1.0;"/><polygon fill="#181818" points="311.16,838.59,318.6636,832.2107,313.3258,834.0834,311.4531,828.7455,311.16,838.59" style="stroke:#181818;stroke-width:1.0;"/></g><!--link ml_kem to util--><g id="link_ml_kem_util"><path d="M474.16,778.49 C462.01,788.16 445.24,800.47 429,809 C392.29,828.28 351.1987,840.8717 326.5887,847.5817 " fill="none" id="ml_kem-to-util" style="stroke:#181818;stroke-width:1.0;"/><polygon fill="#181818" points="320.8,849.16,330.5352,850.6517,325.6239,847.8447,328.4308,842.9334,320.8,849.16" style="stroke:#181818;stroke-width:1.0;"/></g><!--link cc to util--><g id="link_cc_util"><path d="M46.41,311.29 C48.43,330.1 51,358.9 51,384 C51,384 51,384 51,763.5 C51,793.22 73.66,795.23 100,809 C163.61,842.24 244.8702,850.3299 281.1402,852.4499 " fill="none" id="cc-to-util" style="stroke:#181818;stroke-width:1.0;"/><polygon fill="#181818" points="287.13,852.8,278.3787,848.2817,282.1385,852.5082,277.9119,856.268,287.13,852.8" style="stroke:#181818;stroke-width:1.0;"/></g><!--link aes to webidl--><g id="link_aes_webidl"><path d="M411.23,58.55 C526.88,59.09 1125,65.48 1125,139.5 C1125,139.5 1125,139.5 1125,763.5 C1125,826.6 903.607,846.5656 826.337,851.6556 " fill="none" id="aes-to-webidl" style="stroke:#181818;stroke-width:1.0;"/><polygon fill="#181818" points="820.35,852.05,829.5935,855.4498,825.3392,851.7213,829.0676,847.4671,820.35,852.05" style="stroke:#181818;stroke-width:1.0;"/></g><!--link cfrg to webidl--><g id="link_cfrg_webidl"><path d="M677.95,228.87 C702.32,234.9 743.99,247.55 774,269 C876.5,342.26 907.01,382.77 928,507 C943.64,599.58 952.4,635.95 905,717 C879.85,760 873.27,771.06 841,809 C832.07,819.49 825.4148,826.1968 816.3748,834.5168 " fill="none" id="cfrg-to-webidl" style="stroke:#181818;stroke-width:1.0;"/><polygon fill="#181818" points="811.96,838.58,821.291,835.4284,815.639,835.194,815.8734,829.542,811.96,838.58" style="stroke:#181818;stroke-width:1.0;"/></g><!--link ec to webidl--><g id="link_ec_webidl"><path d="M598.19,436.65 C652.22,454.96 823,522.28 823,642 C823,642 823,642 823,763.5 C823,790.99 813.5099,815.7382 805.2199,833.2282 " fill="none" id="ec-to-webidl" style="stroke:#181818;stroke-width:1.0;"/><polygon fill="#181818" points="802.65,838.65,810.1193,832.2305,804.7915,834.1318,802.8902,828.8041,802.65,838.65" style="stroke:#181818;stroke-width:1.0;"/></g><!--link rsa to webidl--><g id="link_rsa_webidl"><path d="M759.1,778.36 C767.07,795.04 777.3345,816.5157 785.3045,833.2057 " fill="none" id="rsa-to-webidl" style="stroke:#181818;stroke-width:1.0;"/><polygon fill="#181818" points="787.89,838.62,787.6213,828.7748,785.7354,834.108,780.4022,832.2222,787.89,838.62" style="stroke:#181818;stroke-width:1.0;"/></g><!--link ml_dsa to webidl--><g id="link_ml_dsa_webidl"><path d="M448.38,612.37 C513.42,657.62 703.5245,789.8637 768.6445,835.1637 " fill="none" id="ml_dsa-to-webidl" style="stroke:#181818;stroke-width:1.0;"/><polygon fill="#181818" points="773.57,838.59,768.466,830.1668,769.4654,835.7347,763.8976,836.7341,773.57,838.59" style="stroke:#181818;stroke-width:1.0;"/></g><!--link ml_kem to webidl--><g id="link_ml_kem_webidl"><path d="M505.81,778.12 C516.37,788.39 531.83,801.58 548,809 C623.44,843.62 717.384,851.1407 763.584,852.8307 " fill="none" id="ml_kem-to-webidl" style="stroke:#181818;stroke-width:1.0;"/><polygon fill="#181818" points="769.58,853.05,760.7322,848.7237,764.5833,852.8672,760.4398,856.7183,769.58,853.05" style="stroke:#181818;stroke-width:1.0;"/></g><!--link aes to ec--><g id="link_aes_ec"><path d="M392,73.43 C392,89.68 392,116.44 392,139.5 C392,139.5 392,139.5 392,348.5 C392,423.8 519.85,430.07 565.8,429.89 " fill="none" id="aes-ec" style="stroke:#C0392B;stroke-width:2.0;stroke-dasharray:7.0,7.0;"/><text fill="#000000" font-family="Helvetica" font-size="11" lengthAdjust="spacing" textLength="31" x="393" y="226.4702">lift 117</text></g><!--link aes to cfrg--><g id="link_aes_cfrg"><path d="M411.13,70.29 C459.97,100.41 588.9,179.89 638.33,210.37 " fill="none" id="aes-cfrg" style="stroke:#C0392B;stroke-width:2.0;stroke-dasharray:7.0,7.0;"/><text fill="#000000" font-family="Helvetica" font-size="11" lengthAdjust="spacing" textLength="25" x="534.86" y="143.4702">lift 90</text></g><!--link aes to rsa--><g id="link_aes_rsa"><path d="M411.19,58.81 C519.05,60.8 1045,73.89 1045,139.5 C1045,139.5 1045,139.5 1045,643 C1045,702.53 834.47,746.28 770.33,758.23 " fill="none" id="aes-rsa" style="stroke:#C0392B;stroke-width:2.0;stroke-dasharray:7.0,7.0;"/><text fill="#000000" font-family="Helvetica" font-size="11" lengthAdjust="spacing" textLength="25" x="1046" y="433.4702">lift 84</text></g><!--link aes to mac--><g id="link_aes_mac"><path d="M372.91,65.99 C347.02,77.54 304,102.33 304,139.5 C304,139.5 304,139.5 304,477 C304,533.35 498.75,578.13 563.41,591.45 " fill="none" id="aes-mac" style="stroke:#C0392B;stroke-width:2.0;stroke-dasharray:7.0,7.0;"/><text fill="#000000" font-family="Helvetica" font-size="11" lengthAdjust="spacing" textLength="25" x="305" y="350.4702">lift 83</text></g><!--link cfrg to ec--><g id="link_cfrg_ec"><path d="M652.53,239.24 C638.55,276.98 601.56,376.73 587.52,414.61 " fill="none" id="cfrg-ec" style="stroke:#C0392B;stroke-width:2.0;stroke-dasharray:7.0,7.0;"/><text fill="#000000" font-family="Helvetica" font-size="11" lengthAdjust="spacing" textLength="31" x="615.63" y="350.4702">lift 110</text></g><!--link cfrg to rsa--><g id="link_cfrg_rsa"><path d="M677.88,234.11 C692.7,241.99 712.75,254.22 727,269 C827.83,373.59 894,404.72 894,550 C894,550 894,550 894,680.5 C894,736.84 808.63,754.51 770.27,759.6 " fill="none" id="cfrg-rsa" style="stroke:#C0392B;stroke-width:2.0;stroke-dasharray:7.0,7.0;"/><text fill="#000000" font-family="Helvetica" font-size="11" lengthAdjust="spacing" textLength="25" x="893.94" y="516.4702">lift 79</text></g><!--link cfrg to mac--><g id="link_cfrg_mac"><path d="M670.3,239.21 C687.33,261.12 716,304.29 716,346.5 C716,346.5 716,346.5 716,477 C716,535.98 642.14,573.03 604.92,587.95 " fill="none" id="cfrg-mac" style="stroke:#C0392B;stroke-width:2.0;stroke-dasharray:7.0,7.0;"/><text fill="#000000" font-family="Helvetica" font-size="11" lengthAdjust="spacing" textLength="25" x="717" y="433.4702">lift 70</text></g><!--link ec to rsa--><g id="link_ec_rsa"><path d="M591.28,446.17 C596.63,454.77 603.38,465.89 609,476 C656.72,561.81 665.23,585.1 709,673 C721.87,698.84 736.49,729.13 744.94,746.74 " fill="none" id="ec-rsa" style="stroke:#C0392B;stroke-width:2.0;stroke-dasharray:7.0,7.0;"/><text fill="#000000" font-family="Helvetica" font-size="11" lengthAdjust="spacing" textLength="31" x="679.95" y="599.4702">lift 102</text></g><!--link ec to mac--><g id="link_ec_mac"><path d="M582.18,446.34 C582.56,477.57 583.44,549.72 583.82,580.81 " fill="none" id="ec-mac" style="stroke:#C0392B;stroke-width:2.0;stroke-dasharray:7.0,7.0;"/><text fill="#000000" font-family="Helvetica" font-size="11" lengthAdjust="spacing" textLength="25" x="584.07" y="516.4702">lift 91</text></g><!--link mac to rsa--><g id="link_mac_rsa"><path d="M599.21,612.34 C631.19,643.57 705.1,715.72 736.95,746.81 " fill="none" id="mac-rsa" style="stroke:#C0392B;stroke-width:2.0;stroke-dasharray:7.0,7.0;"/><text fill="#000000" font-family="Helvetica" font-size="11" lengthAdjust="spacing" textLength="25" x="674.6" y="682.4702">lift 84</text></g><!--link ml_dsa to ml_kem--><g id="link_ml_dsa_ml_kem"><path d="M430.74,612.49 C435.37,630.3 443.9,660.8 454,686 C462.68,707.66 475.24,731.54 483.51,746.52 " fill="none" id="ml_dsa-ml_kem" style="stroke:#C0392B;stroke-width:2.0;stroke-dasharray:7.0,7.0;"/><text fill="#000000" font-family="Helvetica" font-size="11" lengthAdjust="spacing" textLength="31" x="455" y="682.4702">lift 130</text></g><!--link aes to cc--><g id="link_aes_cc"><path d="M372.61,59.95 C315.47,64.45 148.65,79.34 100,103 C40.26,132.06 39.3,226.54 42.03,268.55 " fill="none" id="aes-cc" style="stroke:#C0392B;stroke-width:2.0;stroke-dasharray:7.0,7.0;"/><text fill="#000000" font-family="Helvetica" font-size="11" lengthAdjust="spacing" textLength="31" x="66.55" y="143.4702">lift 104</text></g><rect fill="none" height="70" id="_legend" rx="7.5" ry="7.5" style="stroke:#000000;stroke-width:1.0;" width="405" x="356.5" y="887"/><text fill="#000000" font-family="Helvetica" font-size="14" font-weight="bold" lengthAdjust="spacing" textLength="35" x="365.5" y="904.7803">Edge</text><text fill="#000000" font-family="Helvetica" font-size="14" font-weight="bold" lengthAdjust="spacing" textLength="59" x="442.5" y="904.7803">Meaning</text><text fill="#000000" font-family="Helvetica" font-size="14" lengthAdjust="spacing" textLength="69" x="365.5" y="918.7803">solid arrow</text><text fill="#000000" font-family="Helvetica" font-size="14" lengthAdjust="spacing" textLength="251" x="442.5" y="918.7803">Direct require() (structural dependency)</text><text fill="#000000" font-family="Helvetica" font-size="14" lengthAdjust="spacing" textLength="4" x="361.5" y="932.7803">&#160;</text><text fill="#C0392B" font-family="Helvetica" font-size="14" lengthAdjust="spacing" textLength="47" x="365.5" y="932.7803">dashed</text><text fill="#000000" font-family="Helvetica" font-size="14" lengthAdjust="spacing" textLength="4" x="412.5" y="932.7803">&#160;</text><text fill="#000000" font-family="Helvetica" font-size="14" lengthAdjust="spacing" textLength="310" x="442.5" y="932.7803">High logical coupling (lift &gt;= 70), no direct require</text><text fill="#000000" font-family="Helvetica" font-size="14" lengthAdjust="spacing" textLength="4" x="361.5" y="946.7803">&#160;</text><text fill="#000000" font-family="Helvetica" font-size="14" lengthAdjust="spacing" textLength="240" x="442.5" y="946.7803">All nodes are under lib/internal/crypto/</text><line style="stroke:#000000;stroke-width:1.0;" x1="361.5" x2="756.5" y1="894" y2="894"/><line style="stroke:#000000;stroke-width:1.0;" x1="361.5" x2="756.5" y1="908" y2="908"/><line style="stroke:#000000;stroke-width:1.0;" x1="361.5" x2="756.5" y1="922" y2="922"/><line style="stroke:#000000;stroke-width:1.0;" x1="361.5" x2="756.5" y1="936" y2="936"/><line style="stroke:#000000;stroke-width:1.0;" x1="361.5" x2="756.5" y1="950" y2="950"/><line style="stroke:#000000;stroke-width:1.0;" x1="361.5" x2="361.5" y1="894" y2="950"/><line style="stroke:#000000;stroke-width:1.0;" x1="438.5" x2="438.5" y1="894" y2="950"/><line style="stroke:#000000;stroke-width:1.0;" x1="756.5" x2="756.5" y1="894" y2="950"/><!--SRC=[ZLJ1Zjem4BtdAqRX0j8k16WBh1QabWNjfJsqnxPQ6Ti42sDJszaLBVttZfq02Sqk82GxxptFl1adOzT2ROaX6rWGkawDpXIRQgaDDERX5zcZWl4boQIRQ-M-a0s7-97BP-u49N6zwflupQ7RZKgiuTGHbKeEVoA0htawexY1RXBzZQ8J7nDkOo0MS8N6R3XFvhCoJPSc3RpVr0au3JIdTQIn9B2urj4RaX_6jPQMJwm8a6zV4QtvvY32RMqLAuB_NlBqGssrt7NxoVkyg5FUiZnpGWRUR_mLpOOF7yg25xuGB9VaswCeydsyPVf5tKx2yIWqhe9WhohFlZiLmFUZ2kJbdsE-scgkitCLDxdJgfy2ApagaBAd0ZepSKBBDWeq96v_RqoJ_gZtwSQj15qhRksuzxFTzY_B7SHIB1s-juFuRN7mUv2FaWjgx_iW7hwx8FPzFehxSTwQwrmdbzHb8uFH9NNPoG1ZOwwh8dUJtjlYSk1HDmwlrjNDAsxyzU3vtH_Dz2_T3YsrCC44aUGfLmmMsZczmL6r7yECfToldpbHGgMmzp1OBGK3Oen-mQS7uJz677E_CjmrMz2qpcJKPOP878rRZCaLtRMAm_VKpzgxmjI44RlYxBuJq0doZo9TWTGfpbW9L6TRwHCtWy_962-aTGDA0wjaBMBluQEKo3Aico2AenR7h1IBZb2E6qLaXvhTrkaE7a1VUSLHv8J3IJ8D5DXiONVM-Uy8IfKys_zSHVy0]--></g></svg>